<?xml version="1.0" standalone="no"?>
<!DOCTYPE svg PUBLIC "-//W3C//DTD SVG 20010904//EN"
 "http://www.w3.org/TR/2001/REC-SVG-20010904/DTD/svg10.dtd">
<svg version="1.0" xmlns="http://www.w3.org/2000/svg"
 width="504.000000pt" height="495.000000pt" viewBox="0 0 504.000000 495.000000"
 preserveAspectRatio="xMidYMid meet">
<metadata>
Created by potrace 1.16, written by Peter Selinger 2001-2019
</metadata>
<g transform="translate(0.000000,495.000000) scale(0.100000,-0.100000)"
fill="#000000" stroke="none">
<path d="M0 2475 l0 -2475 2520 0 2520 0 0 2475 0 2475 -2520 0 -2520 0 0
-2475z m2773 2126 c-1 -2 1 -9 6 -15 22 -28 111 -208 111 -225 0 -11 4 -21 9
-23 5 -1 32 -52 61 -113 29 -60 84 -174 121 -253 38 -78 69 -149 69 -157 0 -8
-29 -67 -65 -131 -36 -64 -65 -119 -65 -122 0 -9 -82 -145 -95 -158 -6 -7 -25
-38 -41 -70 -16 -33 -32 -60 -36 -62 -5 -2 -8 -10 -8 -17 0 -7 -4 -15 -8 -17
-5 -1 -52 -70 -105 -153 -54 -82 -124 -188 -157 -235 -156 -222 -519 -779
-580 -889 -9 -15 -27 -42 -41 -60 l-26 -33 -15 24 c-16 25 -48 103 -53 129 -2
9 -24 69 -49 133 -48 120 -142 422 -152 488 -6 33 -2 43 32 85 57 70 140 160
293 318 379 390 550 606 615 776 16 41 32 83 37 94 43 98 81 336 95 585 3 69
8 128 11 132 2 4 12 0 22 -10 10 -9 16 -19 14 -21z m416 -1466 c13 -71 29
-164 36 -205 8 -41 23 -136 35 -210 12 -74 25 -151 30 -170 10 -35 9 -36 -73
-114 -130 -125 -805 -682 -814 -672 -2 1 8 23 21 47 14 24 32 64 42 89 10 25
36 74 59 110 57 87 220 383 217 393 -1 4 3 7 8 7 6 0 10 4 10 8 0 5 43 89 96
188 53 98 109 208 126 244 16 36 43 93 59 126 16 34 29 68 29 76 0 15 65 201
76 220 12 19 21 -8 43 -137z m391 -651 c0 -17 -279 -390 -385 -514 -35 -41
-64 -78 -64 -81 -1 -4 -21 -28 -45 -55 -25 -27 -43 -50 -41 -53 3 -2 -4 -10
-15 -18 -11 -8 -20 -21 -20 -29 0 -8 -4 -14 -8 -14 -5 0 -33 -30 -63 -67 -163
-203 -386 -463 -544 -633 -138 -149 -145 -158 -145 -169 0 -6 -4 -11 -9 -11
-13 0 -151 -166 -151 -181 0 -10 -3 -10 -12 -1 -12 12 -11 23 36 236 15 66 25
125 22 132 -3 7 -1 14 4 16 5 2 12 30 15 63 6 67 5 60 35 237 11 70 24 138 29
151 9 23 84 93 186 172 28 21 56 45 63 54 7 9 15 14 17 11 3 -4 39 23 150 112
35 28 240 177 355 258 58 40 111 81 118 89 7 9 15 14 17 11 3 -3 33 16 68 41
34 25 98 68 142 94 44 27 82 52 83 57 2 4 8 8 14 8 5 0 24 13 41 30 18 16 37
30 42 31 6 1 19 8 30 15 20 15 35 18 35 8z"/>
</g>
</svg>
