<svg xmlns="http://www.w3.org/2000/svg" viewBox="0 0 32 32">
  <defs>
    <linearGradient id="fireGradient" x1="0%" y1="100%" x2="0%" y2="0%">
      <stop offset="0%" style="stop-color:#ff3300;stop-opacity:1" />
      <stop offset="50%" style="stop-color:#ff6b35;stop-opacity:1" />
      <stop offset="100%" style="stop-color:#ffaa00;stop-opacity:1" />
    </linearGradient>
  </defs>
  <rect width="32" height="32" fill="#0a0a0a"/>
  <path d="M16 28c-4.4 0-8-3.6-8-8 0-2 .8-4 2-5.2.4-.4.8-.8 1.2-1.2.8-.8 1.6-2 2-3.2.4 1.2 1.2 2.4 2 3.2.4.4.8.8 1.2 1.2 1.2 1.2 2 3.2 2 5.2 0 1.2-.4 2.4-1.2 3.2.8-.8 1.2-2 1.2-3.2 0-2-.8-4-2-5.2-.4-.4-.8-.8-1.2-1.2-.8-.8-1.6-2-2-3.2-.4 1.2-1.2 2.4-2 3.2-.4.4-.8.8-1.2 1.2-1.2 1.2-2 3.2-2 5.2 0 4.4 3.6 8 8 8 2.4 0 4.4-1.2 5.6-2.8.4.8.4 1.6.4 2.8-1.6 1.2-3.6 2-6 2zm0-20c0-2 1.2-4 2.4-5.6.4-.4.8-.8 1.2-1.2.4.4.8.8 1.2 1.2 1.2 1.6 2.4 3.6 2.4 5.6 0 4.4-3.6 8-8 8s-8-3.6-8-8c0-2 1.2-4 2.4-5.6.4-.4.8-.8 1.2-1.2.4.4.8.8 1.2 1.2 1.2 1.6 2.4 3.6 2.4 5.6z" fill="url(#fireGradient)"/>
</svg>